# xmcd CD database file
# Copyright (C) 1993-1998 Ti Kan
# 
# Track frame offsets:
# 150
# 11360
# 24200
# 33517
# 47802
# 63560
# 75682
# 86585
# 100780
# 115727
# 129270
# 141707
# 
# Disc length: 2078 seconds
# 
# Revision: 0
# Processed by: cddbd v1.4b41PL1 Copyright (c) Steve Scherf et al.
# Submitted via: SuperSonic v3.01
# 
DISCID=95081c0c
DTITLE=Ray Charles
DYEAR=1900
DGENRE=
TTITLE0=A Sentimental Blues
TTITLE1=Snow is Falling
TTITLE2=All to Myself
TTITLE3=Walkin' and Talkin'
TTITLE4=I found my Baby There
TTITLE5=CC Rider
TTITLE6=I Wonder Who's Kissing her Now
TTITLE7=Baby Let Me Hold Your Hand
TTITLE8=I'm Wonderin' and Wonderin'
TTITLE9=Alone in the City
TTITLE10=I'm Glad For Your Sake
TTITLE11=Blues is my Middle Name
EXTD=
EXTT0=
EXTT1=
EXTT2=
EXTT3=
EXTT4=
EXTT5=
EXTT6=
EXTT7=
EXTT8=
EXTT9=
EXTT10=
EXTT11=
PLAYORDER=
